<svg width="245" height="72" viewBox="0 0 245 72" fill="none" xmlns="http://www.w3.org/2000/svg">
<g clip-path="url(#clip0_1_38)">
<path d="M245 -10H-15V82H245V-10Z" fill="#F8F2E4"/>
<path d="M124.006 40.1339V35.727C124.396 35.4477 124.746 35.1479 125.059 34.8234L125.055 34.8193L125.059 34.8152C126.383 33.427 127.05 31.7677 127.05 29.9154C127.05 28.215 126.466 26.6584 125.293 25.3482L125.289 25.3523C125.03 25.0566 124.721 24.7568 124.421 24.498L124.417 24.5021C124.026 24.1612 123.582 23.8245 123.117 23.5657H130.917C132.904 23.5657 134.624 23.6643 136.088 23.8614C138.524 24.19 140.897 24.8677 142.736 26.4571C143.522 27.1389 144.225 27.9645 144.851 28.9379C146.101 30.8846 146.723 33.1148 146.723 35.6407C146.723 38.9511 145.62 42.1629 142.991 44.4834C141.757 45.5718 140.223 46.4302 138.388 47.0421C136.73 47.5925 134.829 47.8923 132.69 47.9457V47.3584C132.69 47.1202 132.628 46.8943 132.517 46.693C133.776 46.6314 134.944 46.3768 136.035 45.9414C138.721 44.8695 140.539 42.8652 141.519 40.3393C142.041 38.9962 142.304 37.4848 142.304 35.8132C142.304 34.1334 142.041 32.6179 141.519 31.2707C139.955 27.2457 136.343 24.9005 131.731 24.9005C130.538 24.9005 129.21 25.073 127.745 25.4221V44.6312C127.593 44.4998 127.432 44.3479 127.264 44.1754C126.688 43.5839 126.182 42.9679 125.688 42.3107L125.684 42.3148L124.006 40.1339ZM112.38 35.5093H113.462C114.741 35.5093 115.864 35.3655 116.81 35.0945C118.444 34.6221 119.892 33.7555 120.607 32.2646C120.92 31.6116 121.081 30.9052 121.081 30.1536C121.081 29.3937 120.949 28.7037 120.673 28.0712C119.768 26.0177 117.789 24.9868 115.444 24.9868C114.659 24.9868 113.643 25.1059 112.384 25.3359V35.5093H112.38ZM131.094 48.0402H124.055L115.156 36.6675H112.38V43.7441C112.38 45.2596 112.561 46.2084 112.914 46.5821C113.408 47.0996 114.149 47.3707 115.148 47.3707H116.156V48.0402H104.896V47.4611L105.028 47.3625H105.88C106.994 47.3625 107.801 47.0339 108.274 46.3686C108.714 45.7525 108.673 44.0604 108.673 43.2677C110.014 40.9964 110.664 38.5321 110.664 35.9405C110.664 34.1786 110.31 32.3755 109.652 30.7245H109.648C109.393 30.0632 109.035 29.365 108.673 28.753C108.673 27.8248 108.735 25.7466 108.138 25.1059C107.644 24.5761 106.896 24.305 105.88 24.305H104.896V23.652H114.474C115.897 23.652 117.106 23.6889 118.11 23.7711C119.632 23.8943 121.294 24.1818 122.57 25.0114C123.092 25.3523 123.59 25.7836 124.059 26.3052C124.985 27.3361 125.445 28.5436 125.445 29.9236C125.445 31.4309 124.919 32.7329 123.862 33.8418C122.808 34.9425 121.171 35.7229 118.97 36.1664L124.384 43.1691C125.022 43.9946 125.581 44.6682 126.091 45.1816C126.968 46.0687 127.897 46.7382 129.169 47.0545C129.72 47.19 130.362 47.2927 131.098 47.3666V48.0402H131.094ZM96.4011 23.3029C98.2976 23.3029 100.025 23.6643 101.581 24.3748C103.14 25.0854 104.469 26.0259 105.575 27.2046C107.834 29.6073 109.068 32.7534 109.068 35.9364C109.068 37.7641 108.722 39.4686 108.044 41.0416C106.723 44.1014 104.39 46.4959 101.14 47.8636C99.5647 48.5248 97.8821 48.8534 96.0967 48.8534C95.0888 48.8534 94.1179 48.7548 93.1881 48.5536L93.6448 47.2146C94.3853 47.4446 95.1916 47.5596 96.0679 47.5596C98.5239 47.5596 100.634 46.6971 102.161 44.89C102.926 43.9864 103.522 42.8241 103.954 41.4277C104.386 40.023 104.604 38.3514 104.604 36.4046C104.604 32.5562 103.827 27.4059 99.7581 25.3893C98.6926 24.8636 97.4502 24.5925 96.0432 24.5925C91.6619 24.5925 89.2182 27.5332 88.2432 31.2132C87.8729 32.6096 87.6919 34.1704 87.6919 35.9036C87.6919 38.7621 88.1938 41.9493 89.8888 44.393C89.6255 44.6887 89.3128 44.968 88.9878 45.2062C88.5517 45.5061 88.0211 45.6293 87.4945 45.7073C86.0505 44.4341 85.0014 42.8898 84.2774 41.173C83.6109 39.5959 83.2777 37.8668 83.2777 35.9775C83.2777 34.2155 83.6068 32.5645 84.2609 31.0202C85.5568 27.9645 87.9429 25.6193 91.1805 24.2845C92.7809 23.6314 94.5252 23.3029 96.4011 23.3029ZM93.6448 42.2696L91.3862 48.9068H71.0059V48.2291H71.9891C73.104 48.2291 73.9062 47.8964 74.3834 47.2311C74.6508 46.8532 74.7824 45.9661 74.7824 44.5696V28.8187C74.7824 27.295 74.6014 26.3462 74.2476 25.9643C73.754 25.4345 73.0052 25.1634 71.9891 25.1634H71.0059V24.5104H82.9445V25.1634C82.241 25.1634 81.6486 25.1921 81.1755 25.262C80.2046 25.3975 79.316 25.6275 78.8388 26.49C78.6372 26.8514 78.5343 27.7673 78.5343 29.2336V44.5573C78.5343 45.4034 78.6043 46.0112 78.7359 46.385C78.8676 46.7629 79.135 47.0298 79.5464 47.1736C79.8878 47.2927 80.9081 47.3461 82.5989 47.3461H84.5201C85.5527 47.3461 86.4002 47.3173 87.0748 47.2557C88.0992 47.1653 89.14 46.9764 89.9752 46.3768C90.8514 45.7443 91.4767 44.9968 92.0074 44.0932C92.3324 43.5429 92.6739 42.8898 93.0154 42.1382L93.6448 42.2696Z" fill="#473A32"/>
<path fill-rule="evenodd" clip-rule="evenodd" d="M29.9241 58.1972L29.0643 59.0391C25.7361 58.4149 23.9753 55.9465 20.787 55.1374C21.1614 56.0491 21.7291 56.2627 23.0209 57.8727C23.3171 58.2424 23.8848 58.7147 24.2469 59.1213L25.2918 60.1111C28.3567 61.4336 30.6646 60.1604 31.3187 57.5154C30.1174 56.6734 30.8209 57.9343 28.4636 56.0533C25.8883 53.9956 24.3168 49.3216 22.8275 47.8143C22.5067 47.4899 22.7987 47.7158 22.3956 47.4447C22.7782 49.8556 23.3418 52.899 24.395 54.665C24.9832 55.6508 25.695 56.2627 26.6864 56.924C27.6655 57.5688 29.0396 57.6468 29.9241 58.1972ZM27.4187 56.1929C27.9124 56.6159 28.4677 56.7597 29.0355 57.3141C26.7563 56.9404 24.0617 54.4145 24.1399 51.8804C24.6706 53.1824 25.4399 54.6815 26.5013 55.3181C27.2747 55.7781 26.7893 55.6549 27.4187 56.1929ZM24.8722 58.5709C25.7978 58.9529 26.057 59.0104 26.6412 59.6634C25.4893 59.5074 25.3741 59.4663 24.8722 58.5709ZM25.6538 20.3622C25.8513 20.087 25.7484 20.1856 25.9912 19.935C27.863 17.9718 30.5288 18.0458 32.8408 18.8138C31.1089 18.7809 30.4013 18.7029 28.5624 19.0479L29.237 19.2738C27.2665 19.5243 27.1801 19.742 25.6538 20.3622ZM23.7861 54.702C21.1285 53.5684 19.7791 52.2377 18.3351 50.2909C16.8582 48.299 15.9779 45.4938 14.2747 44.1015C14.6367 46.4384 15.4801 50.1554 16.6279 51.7531C17.8209 53.4083 20.5073 55.1949 23.7861 54.702ZM16.1013 48.8288C17.1791 50.3854 17.1298 51.3177 18.6519 52.1309L21.3342 54.09C18.8165 53.6465 16.3234 51.445 16.1013 48.8288ZM22.2927 52.1145C21.4165 50.2375 20.4538 48.9684 20.0918 46.2536C19.7503 43.7072 20.3427 40.8075 19.7791 38.4049L18.4503 41.937C16.9241 46.344 18.4298 50.5702 22.2927 52.1145ZM20.1658 49.7817C20.5813 50.065 20.2317 49.1533 20.676 50.4183L20.1658 49.7817C20.1206 49.757 20.0424 49.6749 20.026 49.7118L18.5162 46.9108C18.1747 45.3213 18.4174 44.2986 18.9152 43.0172C19.0222 44.5697 18.8082 45.424 19.1456 47.2804L19.4048 46.6068C19.5611 48.0402 20.0219 48.7795 20.1658 49.7817ZM17.7715 31.5788C20.6225 25.184 26.0775 25.0772 28.369 22.2761C25.7361 22.6458 22.3915 23.2002 20.6719 24.6172C19.1003 25.9191 17.2532 28.367 17.7715 31.5788ZM18.512 28.7366C19.1415 25.9315 21.869 23.8245 23.9548 24.0175C21.1779 24.9047 20.8776 26.1943 20.4662 26.6543L18.512 28.7366ZM16.1671 33.694C16.0478 30.7615 16.595 28.4738 17.7469 26.2313C18.8206 24.1366 20.1041 22.8758 20.7624 20.3868C20.063 21.3479 19.0304 21.89 18.1336 22.7608C17.2367 23.6356 16.4304 24.2599 15.6734 25.529C14.6079 27.3115 14.3529 29.7881 15.1057 31.9361C15.2332 32.2934 15.3238 32.585 15.5007 32.9054C15.8462 33.5379 15.6858 33.3243 16.1671 33.694ZM15.5994 31.702C14.3652 28.864 15.7475 25.7056 17.5082 24.4488C17.031 25.3852 16.1177 26.3668 15.982 27.6031C15.8709 28.6093 15.6529 30.2193 15.5994 31.702ZM21.1162 23.4097C21.6839 22.6622 21.5893 22.2432 23.0332 20.3909C25.1437 17.6884 29.3399 16.4563 31.7342 14.1933C29.4016 14.4274 25.7649 15.409 24.0987 16.4645C22.5355 17.4502 20.6184 20.354 21.1162 23.4097ZM21.6139 21.4711C22.1693 18.8343 24.1399 16.1031 27.0155 15.984C25.4481 16.9327 23.6709 18.0458 22.7 19.5983C22.4038 20.0706 21.8567 20.9618 21.6139 21.4711ZM17.0886 45.2638C13.5054 39.7766 15.3855 37.8216 14.4228 31.4268C13.6124 32.774 12.2506 37.5383 12.5674 39.4809C12.9994 42.1177 15.0111 44.6066 17.0886 45.2638ZM14.8918 42.9433L15.6446 43.8386C15.1098 43.4608 15.2003 43.6291 14.8918 42.9433C14.0731 42.6311 13.5177 41.095 13.2997 40.327C13.0364 39.3906 12.9459 37.7559 13.3203 36.8031C13.5054 36.3266 13.4972 36.4745 13.5836 36.339L13.6987 40.0395C14.4516 40.3804 13.6124 40.2325 14.1554 40.0518C14.1554 40.0518 14.1636 40.0313 14.1719 40.0313C14.3241 41.2881 14.7972 42.1218 14.8918 42.9433ZM17.2737 42.319C17.0146 34.9877 20.8734 33.1641 21.8772 29.2911C21.0915 29.595 17.4095 33.0656 16.7143 34.2936C15.4636 36.5115 15.4307 40.7336 17.2737 42.319ZM16.7431 40.3434C15.5294 37.5465 16.8253 34.1991 18.6807 33.0574C18.1706 34.039 17.2861 34.9425 17.1339 36.2281C17.0105 37.2754 16.7636 38.8813 16.7431 40.3434ZM31.8165 15.487C32.8943 14.7231 34.2396 13.5813 34.5605 11.8275L34.2931 12.0781C33.0095 13.6388 32.7544 14.259 30.8662 15.4952C30.3931 15.8033 30.1586 15.7909 30.1462 16.2181C30.1339 16.6534 28.4513 17.249 27.9988 17.479C30.0022 17.2408 34.4741 15.0845 36.0127 13.3677C36.6462 12.6572 37.4772 11.9015 37.7693 10.694C37.72 10.7391 37.6459 10.735 37.6212 10.8254C37.4361 11.5688 34.2149 14.0988 33.5608 14.5506C33.0013 14.9408 32.487 15.2406 31.8165 15.487ZM29.8582 61.3802C32.2073 61.3268 33.0424 58.3081 32.4706 57.6181C31.331 57.7454 32.2525 58.2465 29.8582 61.3802ZM32.195 61.5158C33.6554 61.0804 34.2601 59.6758 34.5234 57.9302L33.4168 57.7865L32.195 61.5158ZM30.3972 17.29C32.4294 17.4625 35.6794 16.1441 36.8478 15.0927L30.3972 17.29ZM32.2032 17.8486C33.1288 17.8199 34.4864 17.8486 35.3874 17.5324L33.1 17.3886C31.4668 17.672 32.6639 17.3599 32.1332 17.8322C31.1788 17.6474 30.1791 17.6022 29.1054 17.8116C26.563 18.3127 24.3785 20.2595 23.6215 22.2679C30.7016 17.9061 33.9105 21.0686 37.3003 19.5941L36.4981 19.1999C36.1443 19.0684 35.8152 18.9904 35.4614 18.8754C34.8402 18.67 34.2478 18.44 33.606 18.2265C33.1494 18.0786 32.6804 17.9431 32.2032 17.8486ZM46.9886 58.1972L47.8484 59.0391C51.1766 58.4149 52.9374 55.9465 56.1257 55.1374C55.7513 56.0491 55.1836 56.2627 53.8918 57.8727C53.5956 58.2424 53.0279 58.7147 52.6658 59.1213L51.6209 60.1111C48.556 61.4336 46.2481 60.1604 45.594 57.5154C46.7953 56.6734 46.0918 57.9343 48.4491 56.0533C51.0244 53.9956 52.5959 49.3216 54.0851 47.8143C54.406 47.4899 54.1181 47.7158 54.5171 47.4447C54.1345 49.8556 53.5709 52.899 52.5177 54.665C51.9294 55.6508 51.2177 56.2627 50.2263 56.924C49.2472 57.5688 47.8731 57.6468 46.9886 58.1972ZM49.4899 56.1929C48.9962 56.6159 48.4408 56.7597 47.8731 57.3141C50.1522 56.9404 52.8469 54.4145 52.7687 51.8804C52.238 53.1824 51.4687 54.6815 50.4073 55.3181C49.638 55.7781 50.1234 55.6549 49.4899 56.1929ZM52.0405 58.5709C51.1149 58.9529 50.8557 59.0104 50.2715 59.6634C51.4234 59.5074 51.5386 59.4663 52.0405 58.5709ZM51.2589 20.3622C51.0614 20.087 51.1642 20.1856 50.9215 19.935C49.0456 17.9718 46.3839 18.0458 44.0718 18.8138C45.8038 18.7809 46.5114 18.7029 48.3503 19.0479L47.6757 19.2738C49.6462 19.5243 49.7326 19.7379 51.2589 20.3622ZM53.1266 54.702C55.7842 53.5684 57.1336 52.2377 58.5775 50.2909C60.0544 48.299 60.9348 45.4938 62.638 44.1015C62.276 46.4384 61.4326 50.1554 60.2848 51.7531C59.0918 53.4083 56.4054 55.1949 53.1266 54.702ZM60.8114 48.8288C59.7336 50.3854 59.7829 51.3177 58.2608 52.1309L55.5785 54.09C58.0962 53.6465 60.5893 51.445 60.8114 48.8288ZM54.62 52.1145C55.4962 50.2375 56.4589 48.9684 56.8209 46.2536C57.1623 43.7072 56.57 40.8075 57.1336 38.4049L58.4624 41.937C59.9886 46.344 58.4788 50.5702 54.62 52.1145ZM56.7468 49.7817C56.3313 50.065 56.681 49.1533 56.2367 50.4183L56.7468 49.7817C56.7921 49.757 56.8703 49.6749 56.8867 49.7118L58.3965 46.9108C58.738 45.3213 58.4953 44.2986 57.9975 43.0172C57.8905 44.5697 58.1044 45.424 57.7671 47.2804L57.5079 46.6068C57.3516 48.0402 56.8867 48.7795 56.7468 49.7817ZM59.137 31.5788C56.2861 25.184 50.831 25.0772 48.5396 22.2761C51.1725 22.6458 54.5171 23.2002 56.2367 24.6172C57.8124 25.9191 59.6595 28.367 59.137 31.5788ZM58.3965 28.7366C57.7671 25.9315 55.0396 23.8245 52.9538 24.0216C55.7307 24.9088 56.031 26.1984 56.4424 26.6584L58.3965 28.7366ZM60.7456 33.694C60.8649 30.7615 60.3136 28.4738 59.1658 26.2354C58.0921 24.1408 56.8086 22.8799 56.1503 20.3909C56.8497 21.352 57.8823 21.8941 58.7791 22.7649C59.676 23.6397 60.4823 24.264 61.2393 25.5331C62.3048 27.3156 62.5598 29.7922 61.807 31.9402C61.6794 32.2975 61.5889 32.5891 61.412 32.9095C61.0665 33.5379 61.2269 33.3243 60.7456 33.694ZM61.3133 31.702C62.5475 28.864 61.1652 25.7056 59.4044 24.4488C59.8817 25.3852 60.795 26.3668 60.9307 27.6031C61.0418 28.6093 61.2557 30.2193 61.3133 31.702ZM55.7924 23.4056C55.2247 22.6581 55.3193 22.2391 53.8753 20.3868C51.7608 17.6843 47.5687 16.4522 45.1744 14.1891C47.507 14.4233 51.1437 15.4049 52.8098 16.4604C54.3772 17.4502 56.2902 20.354 55.7924 23.4056ZM55.2988 21.4711C54.7434 18.8343 52.7728 16.1031 49.8972 15.984C51.4646 16.9327 53.2418 18.0458 54.2127 19.5983C54.5089 20.0706 55.0519 20.9618 55.2988 21.4711ZM59.8241 45.2638C63.4073 39.7766 61.5272 37.8216 62.4899 31.4268C63.3003 32.774 64.662 37.5383 64.3453 39.4809C63.9133 42.1177 61.9016 44.6066 59.8241 45.2638ZM62.0209 42.9433L61.2681 43.8386C61.7988 43.4566 61.7124 43.6291 62.0209 42.9433C62.8396 42.6311 63.3949 41.095 63.613 40.327C63.8763 39.3906 63.9668 37.7559 63.5924 36.8031C63.4073 36.3266 63.4155 36.4745 63.3291 36.339L63.2139 40.0395C62.4611 40.3804 63.3003 40.2325 62.7573 40.0518C62.7573 40.0518 62.7491 40.0313 62.7408 40.0313C62.5886 41.2881 62.1155 42.1218 62.0209 42.9433ZM59.6389 42.319C59.8981 34.9877 56.0392 33.1641 55.0355 29.2911C55.8212 29.595 59.5032 33.0656 60.1984 34.2936C61.4491 36.5115 61.482 40.7336 59.6389 42.319ZM60.1696 40.3434C61.3832 37.5465 60.0874 34.1991 58.232 33.0574C58.7421 34.039 59.6266 34.9425 59.7788 36.2281C59.9022 37.2754 60.1491 38.8813 60.1696 40.3434ZM45.0921 15.487C44.0143 14.7231 42.669 13.5813 42.3481 11.8275L42.6155 12.0781C43.8991 13.6388 44.1541 14.259 46.0424 15.4952C46.5155 15.8033 46.75 15.7909 46.7624 16.2181C46.7747 16.6534 48.4573 17.249 48.9098 17.479C46.9022 17.2408 42.4345 15.0845 40.8959 13.3677C40.2624 12.6572 39.4272 11.9015 39.1393 10.694C39.1886 10.7391 39.2627 10.735 39.2874 10.8254C39.4725 11.5688 42.6937 14.0988 43.3478 14.5506C43.9114 14.9408 44.4257 15.2406 45.0921 15.487ZM47.0544 61.3802C44.7054 61.3268 43.8703 58.3081 44.4421 57.6181C45.5817 57.7454 44.6601 58.2465 47.0544 61.3802ZM44.7177 61.5158C43.2573 61.0804 42.6525 59.6758 42.3893 57.9302L43.4959 57.7865L44.7177 61.5158ZM46.5155 17.2859C44.4832 17.4584 41.2332 16.14 40.0649 15.0886L46.5155 17.2859ZM44.7095 17.8486C43.7839 17.8199 42.4263 17.8486 41.5294 17.5324L43.8168 17.3886C45.45 17.672 44.2529 17.3599 44.7836 17.8322C45.738 17.6474 46.7377 17.6022 47.8114 17.8116C50.3538 18.3127 52.5383 20.2595 53.2953 22.2679C46.2152 17.902 43.0063 21.0686 39.6165 19.5941L40.4187 19.1999C40.7725 19.0684 41.1016 18.9904 41.4554 18.8754C42.0766 18.67 42.669 18.44 43.3108 18.2265C43.7633 18.0786 44.2282 17.9431 44.7095 17.8486ZM38.4728 59.6224V59.6388L38.4563 59.6306L38.4399 59.6388V59.6224L38.3658 59.5854C37.4114 60.6327 35.9263 61.1749 34.0627 61.3802C34.3506 60.4808 34.8772 58.9365 35.2105 58.0247C36.6215 58.1766 37.5307 58.2547 38.4399 58.2588C39.3573 58.2547 40.2706 58.1766 41.7022 58.0206C42.0396 58.9324 42.562 60.4766 42.85 61.3761C40.9864 61.1708 39.5013 60.6286 38.5469 59.5813L38.4728 59.6224Z" fill="#473A32"/>
<path d="M47.6098 43.6907C47.3424 45.1652 45.1456 45.1036 45.0016 43.8591C44.9893 43.7687 45.051 43.7154 45.1456 43.6907C44.837 43.7564 44.6807 44.1055 44.6807 44.7298C44.6807 47.0955 45.5282 49.3627 47.219 51.5312H31.6766C32.557 50.3484 32.9972 49.0628 32.9972 47.6787V32.433C32.9972 31.3816 32.5323 30.2316 31.6025 28.983L34.6839 30.1495L37.6747 28.983C36.7943 30.2111 36.3541 31.3611 36.3541 32.433V47.6787C36.3541 48.1921 36.531 48.952 36.8889 49.9582C37.4608 49.9582 38.0244 49.9623 38.5839 49.9746C39.1434 49.987 39.7111 49.9911 40.2829 49.9911C41.8544 49.9911 42.4263 49.6214 42.6402 48.9848C42.7842 48.5659 42.451 48.3811 42.0684 48.3811C42.0437 48.3811 41.9614 48.3975 41.8174 48.4303C41.6734 48.4632 41.4348 48.5371 41.1016 48.648C41.1016 47.1078 41.3855 45.81 41.9573 44.7627C43.4301 41.4687 48.2475 40.1586 47.6098 43.6907Z" fill="#473A32"/>
<path fill-rule="evenodd" clip-rule="evenodd" d="M30.4877 25.0854C29.994 25.2292 30.1997 25.7261 30.3601 25.8165C30.5576 25.9233 33.6225 25.8699 33.9804 25.8699C34.5851 25.8699 38.625 25.9233 38.8554 25.8411C39.1557 25.7343 39.1927 25.262 38.8965 25.1142C38.6867 25.0074 35.6712 25.0608 35.3092 25.0608C34.5892 25.0608 30.8702 24.9745 30.4877 25.0854ZM38.7525 26.3627H38.3411C38.3494 27.0979 38.4193 28.3383 38.263 28.9872C38.1725 29.3692 38.1025 29.7265 38.0079 30.1084C37.8722 30.667 37.9174 30.7902 38.5386 30.7984C39.3943 30.8108 39.1845 30.4863 38.843 29.0077C38.6703 28.2643 38.7402 27.1801 38.7525 26.3627ZM37.1152 26.3833L32.1744 26.3668C32.0345 26.6297 31.9604 27.1965 31.8823 27.5086C31.6601 28.404 31.9358 28.0302 33.5566 28.5559C35.1734 29.0817 34.0873 29.1186 35.6218 28.5888C37.1934 28.0467 37.6294 28.4368 37.4114 27.5538C37.3415 27.2663 37.2221 26.6133 37.1152 26.3833Z" fill="#473A32"/>
<path d="M193.654 36.1172V36.7907C193.654 36.9057 193.658 37.0413 193.666 37.2015C193.674 37.4191 193.683 37.5424 193.691 37.567C193.699 37.5916 193.72 37.6122 193.761 37.6368C193.802 37.6615 193.864 37.6738 193.954 37.6738H194.119V37.8257C193.909 37.8175 193.707 37.8093 193.51 37.8093C193.321 37.8093 193.053 37.8134 192.7 37.8257V37.6738H192.852C193.02 37.6738 193.119 37.645 193.152 37.5875C193.181 37.53 193.197 37.2713 193.197 36.8031V35.3491C193.197 34.9261 193.181 34.6879 193.152 34.6304C193.119 34.5729 193.029 34.5441 192.885 34.5441H192.704V34.3922C192.971 34.4004 193.218 34.4086 193.444 34.4086C193.674 34.4086 193.901 34.4045 194.119 34.3922V34.5441H194.016C193.868 34.5441 193.773 34.5565 193.74 34.5811C193.703 34.6057 193.683 34.6427 193.674 34.7002C193.662 34.7906 193.654 35.0041 193.654 35.345V35.8954C193.942 35.9036 194.308 35.9118 194.748 35.9118C195.123 35.9118 195.431 35.9077 195.666 35.8954V35.4231C195.666 35.1479 195.657 34.9179 195.637 34.729C195.629 34.6632 195.608 34.614 195.571 34.5852C195.534 34.5565 195.46 34.54 195.345 34.54H195.172V34.3881C195.419 34.3963 195.653 34.4045 195.875 34.4045C196.114 34.4045 196.361 34.4004 196.62 34.3881V34.54H196.435C196.312 34.54 196.229 34.5524 196.196 34.5811C196.163 34.6099 196.143 34.6591 196.135 34.7331C196.126 34.807 196.122 35.037 196.122 35.4231V36.7579C196.122 37.2507 196.135 37.5259 196.163 37.5834C196.192 37.6409 196.279 37.6697 196.427 37.6697H196.616V37.8216C196.394 37.8134 196.163 37.8052 195.925 37.8052C195.653 37.8052 195.402 37.8093 195.168 37.8216V37.6697H195.337C195.46 37.6697 195.538 37.6574 195.575 37.6286C195.612 37.5999 195.633 37.5465 195.641 37.4684C195.657 37.3041 195.666 37.0618 195.666 36.7456V36.1172C195.439 36.109 195.147 36.1007 194.793 36.1007C194.292 36.1007 193.909 36.1049 193.654 36.1172ZM189.651 36.4622H190.869L190.26 35.0165L189.651 36.4622ZM190.959 36.6593H189.561L189.396 37.0495C189.289 37.3082 189.231 37.4643 189.231 37.5218C189.231 37.5588 189.24 37.5834 189.26 37.5999C189.281 37.6163 189.33 37.6286 189.412 37.6368L189.643 37.6615V37.8134C189.487 37.8052 189.314 37.797 189.12 37.797C188.89 37.797 188.684 37.8011 188.507 37.8134V37.6615L188.581 37.6574C188.693 37.6532 188.767 37.6409 188.8 37.6245C188.832 37.604 188.865 37.5547 188.902 37.4766C189.018 37.2425 189.133 36.9961 189.252 36.725L189.918 35.2218C190.095 34.8234 190.219 34.5318 190.281 34.3511H190.445L191.671 37.1932C191.753 37.3863 191.807 37.5013 191.836 37.5424C191.864 37.5834 191.893 37.6081 191.93 37.6286C191.967 37.645 192.045 37.6574 192.169 37.6615V37.8134C191.959 37.8052 191.757 37.797 191.568 37.797C191.391 37.797 191.153 37.8011 190.861 37.8134V37.6615L191.099 37.645C191.186 37.6409 191.235 37.6286 191.251 37.6204C191.276 37.604 191.288 37.5793 191.288 37.5547C191.288 37.5259 191.264 37.452 191.214 37.3288L190.959 36.6593ZM186.948 34.6263C186.8 34.614 186.57 34.6057 186.257 34.6057C185.973 34.6057 185.702 34.614 185.451 34.6263C185.451 35.5586 185.414 36.2116 185.344 36.5813C185.274 36.955 185.113 37.2836 184.871 37.5752C185.578 37.5875 186.051 37.5957 186.29 37.5957C186.557 37.5957 186.78 37.5875 186.952 37.5752C186.973 37.185 186.981 36.9263 186.981 36.7907V35.419C186.977 35.2875 186.969 35.0206 186.948 34.6263ZM184.735 37.9859C184.64 38.2241 184.562 38.45 184.5 38.6677H184.315C184.377 38.4336 184.418 38.2036 184.447 37.9777L184.476 37.7395C184.76 37.4725 184.957 37.1727 185.068 36.84C185.179 36.5115 185.237 35.9488 185.237 35.1561C185.237 34.9138 185.229 34.7495 185.212 34.6674C185.196 34.5852 185.097 34.5441 184.924 34.5441H184.747V34.3922C185.146 34.4127 185.652 34.4209 186.265 34.4209L187.742 34.3922L187.927 34.3881V34.54H187.742C187.565 34.54 187.467 34.577 187.454 34.6468C187.438 34.7207 187.434 34.9754 187.434 35.4231V36.7866C187.434 37.2302 187.442 37.489 187.454 37.5588C187.467 37.6327 187.565 37.6697 187.742 37.6697H188.03C187.964 38.0065 187.927 38.335 187.927 38.6636H187.742C187.738 38.45 187.718 38.22 187.689 37.9818C187.582 37.9161 187.462 37.8709 187.327 37.8422C187.191 37.8134 186.829 37.8011 186.237 37.8011C185.714 37.8011 185.368 37.8134 185.208 37.834C185.048 37.8627 184.891 37.912 184.735 37.9859ZM182.106 37.5793C182.258 37.5999 182.382 37.6122 182.481 37.6122C182.764 37.6122 182.987 37.5382 183.143 37.3863C183.299 37.2343 183.377 37.029 183.377 36.7661C183.377 36.5936 183.344 36.4499 183.275 36.3349C183.205 36.224 183.106 36.1377 182.982 36.0884C182.859 36.035 182.657 36.0104 182.382 36.0104C182.299 36.0104 182.205 36.0104 182.102 36.0145V36.8729L182.106 37.1768C182.11 37.2877 182.114 37.3699 182.114 37.4274C182.118 37.4725 182.114 37.5218 182.106 37.5793ZM182.106 35.8132C182.188 35.8174 182.262 35.8174 182.328 35.8174C182.649 35.8174 182.88 35.7599 183.019 35.6449C183.159 35.5299 183.229 35.3697 183.229 35.152C183.229 34.9672 183.172 34.8234 183.056 34.7249C182.941 34.6263 182.756 34.577 182.501 34.577C182.39 34.577 182.267 34.5893 182.135 34.6099C182.123 34.807 182.114 35.1027 182.114 35.5011V35.8132H182.106ZM182.908 35.879C183.254 35.8995 183.505 35.9816 183.657 36.1172C183.809 36.2568 183.887 36.4457 183.887 36.6881C183.887 36.9961 183.76 37.259 183.501 37.4849C183.242 37.7066 182.917 37.8175 182.518 37.8175L182.328 37.8134C182.168 37.8052 182.032 37.8052 181.917 37.8052C181.835 37.8052 181.736 37.8093 181.621 37.8134L181.419 37.8216V37.7149C181.518 37.6656 181.58 37.6286 181.596 37.604C181.612 37.5793 181.625 37.5341 181.629 37.4766C181.641 37.2836 181.645 37.0659 181.645 36.8236V35.3204C181.645 34.9179 181.629 34.692 181.6 34.6386C181.567 34.577 181.477 34.5441 181.341 34.5441H181.176V34.3963H181.378L181.6 34.4045C181.715 34.4086 181.806 34.4127 181.872 34.4127C181.974 34.4127 182.172 34.4086 182.472 34.4004L182.826 34.3922C183.102 34.3922 183.312 34.4415 183.447 34.5359C183.62 34.6591 183.706 34.8316 183.706 35.0534C183.706 35.2382 183.645 35.3984 183.525 35.5381C183.414 35.6695 183.205 35.7886 182.908 35.879ZM178.107 36.4622H179.325L178.716 35.0165L178.107 36.4622ZM179.416 36.6593H178.017L177.852 37.0495C177.745 37.3082 177.688 37.4643 177.688 37.5218C177.688 37.5588 177.696 37.5834 177.717 37.5999C177.737 37.6163 177.787 37.6286 177.869 37.6368L178.099 37.6615V37.8134C177.943 37.8052 177.77 37.797 177.577 37.797C177.346 37.797 177.141 37.8011 176.964 37.8134V37.6615L177.038 37.6574C177.149 37.6532 177.223 37.6409 177.256 37.6245C177.289 37.604 177.322 37.5547 177.359 37.4766C177.474 37.2425 177.589 36.9961 177.708 36.725L178.375 35.2218C178.552 34.8234 178.675 34.5318 178.737 34.3511H178.901L180.127 37.1932C180.21 37.3863 180.263 37.5013 180.292 37.5424C180.321 37.5834 180.35 37.6081 180.387 37.6286C180.424 37.645 180.502 37.6574 180.625 37.6615V37.8134C180.415 37.8052 180.214 37.797 180.025 37.797C179.848 37.797 179.609 37.8011 179.317 37.8134V37.6615L179.556 37.645C179.642 37.6409 179.691 37.6286 179.708 37.6204C179.732 37.604 179.745 37.5793 179.745 37.5547C179.745 37.5259 179.72 37.452 179.671 37.3288L179.416 36.6593ZM174.652 34.655C174.639 34.885 174.635 35.1315 174.635 35.3943V36.7702C174.635 37.2549 174.652 37.5218 174.681 37.5793C174.709 37.6368 174.804 37.6656 174.964 37.6656H175.133V37.8175C174.849 37.8093 174.623 37.8011 174.458 37.8011C174.314 37.8011 174.055 37.8052 173.685 37.8175V37.6656H173.903C174.006 37.6656 174.072 37.6532 174.1 37.6286C174.129 37.604 174.15 37.5547 174.158 37.4766C174.166 37.4027 174.174 37.1686 174.183 36.7784V35.4929L174.175 34.9959C174.17 34.7865 174.15 34.6632 174.109 34.614C174.068 34.5688 173.969 34.5441 173.808 34.5441H173.689V34.3922C173.891 34.4004 174.146 34.4004 174.454 34.4004C174.635 34.4004 174.841 34.3963 175.063 34.384C175.211 34.3757 175.322 34.3757 175.396 34.3757C175.787 34.3757 176.071 34.4456 176.248 34.5893C176.425 34.7331 176.511 34.922 176.511 35.1643C176.511 35.3409 176.462 35.5093 176.359 35.6736C176.256 35.8338 176.112 35.9652 175.927 36.0638C175.742 36.1624 175.54 36.2116 175.331 36.2116C175.236 36.2116 175.112 36.1952 174.969 36.1665L174.919 35.9857C175.063 36.0227 175.178 36.0391 175.273 36.0391C175.495 36.0391 175.672 35.9734 175.804 35.8379C175.935 35.7024 176.001 35.5216 176.001 35.2875C176.001 35.0616 175.931 34.885 175.791 34.7618C175.651 34.6345 175.442 34.5729 175.166 34.5729C175.01 34.5688 174.837 34.5975 174.652 34.655ZM171.706 37.6697H171.875C172.031 37.6697 172.122 37.6368 172.155 37.5711C172.187 37.5054 172.204 37.2302 172.204 36.7456V35.419C172.204 35.3368 172.192 35.0699 172.171 34.6222C172.027 34.6099 171.768 34.6016 171.394 34.6016C170.85 34.6016 170.488 34.6099 170.307 34.6222C170.295 34.8604 170.287 35.0986 170.287 35.3409V36.7949C170.287 36.9099 170.291 37.0454 170.299 37.2015L170.312 37.4684C170.312 37.5588 170.344 37.6163 170.398 37.6368C170.456 37.6574 170.517 37.6697 170.587 37.6697H170.752V37.8216C170.558 37.8134 170.357 37.8052 170.143 37.8052C169.941 37.8052 169.67 37.8093 169.337 37.8216V37.6697H169.489C169.666 37.6697 169.768 37.6368 169.793 37.5711C169.818 37.5054 169.834 37.2466 169.834 36.7949V35.345C169.834 34.9425 169.822 34.7084 169.793 34.6427C169.764 34.577 169.674 34.5441 169.518 34.5441H169.337V34.3922C170.365 34.4004 171.04 34.4086 171.361 34.4086C171.566 34.4086 172.163 34.4045 173.15 34.3922V34.5441H172.965C172.788 34.5441 172.693 34.5811 172.677 34.6509C172.665 34.7207 172.656 34.9795 172.656 35.4231V36.7579C172.656 37.2302 172.669 37.5013 172.689 37.567C172.71 37.6327 172.805 37.6697 172.965 37.6697H173.15V37.8216C172.953 37.8134 172.718 37.8052 172.451 37.8052C172.171 37.8052 171.924 37.8093 171.702 37.8216V37.6697H171.706ZM165.626 35.9077C165.626 36.2732 165.687 36.5895 165.815 36.8565C165.938 37.1275 166.107 37.3288 166.317 37.4602C166.527 37.5957 166.765 37.6615 167.037 37.6615C167.288 37.6615 167.506 37.604 167.691 37.489C167.876 37.374 168.024 37.2056 168.131 36.9756C168.238 36.7497 168.292 36.4745 168.292 36.15C168.292 35.8091 168.234 35.5175 168.115 35.2752C167.995 35.0329 167.835 34.8522 167.625 34.729C167.419 34.6057 167.177 34.5441 166.893 34.5441C166.634 34.5441 166.412 34.5975 166.226 34.7043C166.041 34.8111 165.893 34.9713 165.786 35.1807C165.679 35.3902 165.626 35.6325 165.626 35.9077ZM165.136 36.1049C165.136 35.575 165.309 35.1479 165.65 34.8275C165.992 34.5031 166.449 34.3429 167.016 34.3429C167.572 34.3429 168.012 34.4949 168.329 34.7947C168.645 35.0945 168.802 35.4929 168.802 35.9899C168.802 36.5238 168.617 36.9756 168.25 37.3329C167.884 37.6943 167.419 37.875 166.86 37.875C166.51 37.875 166.21 37.8052 165.955 37.6615C165.7 37.5218 165.502 37.3124 165.354 37.0413C165.206 36.7661 165.136 36.454 165.136 36.1049ZM206.67 30.9915L206.736 31.0654C206.646 31.2913 206.543 31.4925 206.436 31.6691C206.329 31.8499 206.185 32.0511 206.008 32.2729L205.806 32.3756L205.732 32.3016C205.872 32.084 205.975 31.8909 206.041 31.7143C206.107 31.5377 206.152 31.3488 206.173 31.1434C206.366 31.1024 206.531 31.049 206.67 30.9915ZM203.523 31.435C203.651 31.4556 203.774 31.4679 203.889 31.4679C204.173 31.4679 204.395 31.3898 204.552 31.2379C204.708 31.0859 204.786 30.8806 204.786 30.6218C204.786 30.4945 204.762 30.3713 204.716 30.2563C204.671 30.1413 204.581 30.0427 204.457 29.9729C204.33 29.899 204.116 29.862 203.811 29.862C203.712 29.862 203.614 29.8661 203.515 29.8702V30.7286C203.515 31.0982 203.519 31.3324 203.523 31.435ZM202.832 31.5665L202.906 31.5336C202.976 31.4966 203.021 31.4515 203.038 31.3899C203.054 31.3282 203.062 31.09 203.062 30.6752V29.1966C203.062 28.7818 203.046 28.5477 203.017 28.4861C202.988 28.4245 202.898 28.3957 202.746 28.3957H202.598V28.2438C202.791 28.252 203.009 28.2602 203.256 28.2602C203.544 28.2602 203.787 28.2561 203.984 28.2438V28.3957H203.881C203.7 28.3957 203.593 28.4204 203.564 28.4697C203.536 28.519 203.519 28.7613 203.519 29.1966V29.6731H204.013C204.873 29.6731 205.3 29.9647 205.3 30.552C205.3 30.8723 205.165 31.1393 204.897 31.3529C204.63 31.5665 204.309 31.6732 203.931 31.6732C203.889 31.6732 203.824 31.6732 203.741 31.6691C203.581 31.6609 203.453 31.6609 203.359 31.6609C203.264 31.6609 203.153 31.665 203.034 31.6691C202.939 31.6732 202.873 31.6774 202.832 31.6774V31.5665ZM200.878 28.4615C200.862 28.7038 200.853 28.9584 200.853 29.2254V30.6013C200.853 31.1147 200.866 31.394 200.89 31.4474C200.915 31.5007 201.006 31.5254 201.166 31.5254H201.347V31.6774C201.063 31.6691 200.82 31.6609 200.623 31.6609C200.421 31.6609 200.183 31.665 199.903 31.6774V31.5254H200.105C200.212 31.5254 200.281 31.5131 200.314 31.4843C200.347 31.4556 200.368 31.4022 200.376 31.32C200.393 31.1311 200.401 30.8888 200.401 30.5931V29.2172C200.401 28.9461 200.397 28.6956 200.384 28.4697H200.137C199.743 28.4697 199.524 28.4779 199.483 28.4984C199.442 28.5148 199.418 28.5888 199.405 28.7161L199.372 29.0406H199.22L199.224 28.7531C199.224 28.6381 199.216 28.4697 199.195 28.252C200.068 28.2602 200.578 28.2684 200.73 28.2684L202.067 28.252C202.034 28.5231 202.018 28.7859 202.013 29.0365H201.861L201.837 28.7202C201.828 28.6093 201.812 28.5436 201.795 28.5272C201.779 28.5066 201.738 28.4943 201.676 28.4902C201.499 28.4779 201.298 28.4697 201.075 28.4697H200.878V28.4615ZM198.389 29.1145L198.368 28.6832C198.225 28.5888 198.076 28.519 197.916 28.4697C197.76 28.4245 197.595 28.3998 197.422 28.3998C196.986 28.3998 196.637 28.5313 196.377 28.7941C196.114 29.057 195.982 29.4102 195.982 29.8538C195.982 30.1659 196.048 30.4411 196.184 30.6834C196.316 30.9257 196.505 31.1188 196.752 31.2584C196.999 31.4022 197.254 31.472 197.529 31.472C197.743 31.472 197.957 31.4473 198.171 31.3981C198.327 31.3611 198.488 31.2831 198.648 31.164L198.698 31.2132C198.665 31.2872 198.632 31.3611 198.603 31.4391C198.414 31.5336 198.225 31.6034 198.035 31.6486C197.846 31.6938 197.653 31.7184 197.459 31.7184C197.064 31.7184 196.715 31.6404 196.414 31.4884C196.114 31.3365 195.884 31.1229 195.723 30.8559C195.563 30.5849 195.481 30.2809 195.481 29.9441C195.481 29.6032 195.563 29.2993 195.723 29.0324C195.888 28.7654 196.118 28.5559 196.414 28.4081C196.711 28.2602 197.077 28.1863 197.513 28.1863C197.739 28.1863 198.006 28.2232 198.311 28.2972C198.463 28.3341 198.587 28.3588 198.681 28.3752C198.611 28.5477 198.566 28.79 198.558 29.1063H198.389V29.1145ZM191.675 29.7593C191.675 30.1249 191.737 30.4411 191.864 30.7081C191.988 30.9791 192.156 31.1804 192.366 31.3118C192.576 31.4432 192.815 31.5131 193.086 31.5131C193.337 31.5131 193.555 31.4556 193.74 31.3406C193.925 31.2256 194.074 31.0572 194.181 30.8272C194.287 30.6013 194.341 30.3261 194.341 30.0016C194.341 29.6607 194.283 29.3691 194.164 29.1268C194.045 28.8845 193.884 28.7038 193.674 28.5806C193.469 28.4573 193.226 28.3957 192.942 28.3957C192.683 28.3957 192.461 28.4491 192.276 28.5559C192.091 28.6627 191.943 28.8229 191.836 29.0324C191.729 29.2459 191.675 29.4882 191.675 29.7593ZM191.186 29.9565C191.186 29.4266 191.358 28.9995 191.7 28.6791C192.041 28.3547 192.498 28.1945 193.066 28.1945C193.621 28.1945 194.061 28.3465 194.378 28.6463C194.695 28.9461 194.851 29.3445 194.851 29.8415C194.851 30.3754 194.666 30.8272 194.3 31.1845C193.934 31.5459 193.469 31.7266 192.909 31.7266C192.56 31.7266 192.259 31.6568 192.004 31.5131C191.749 31.3734 191.552 31.164 191.404 30.8929C191.256 30.6218 191.186 30.3097 191.186 29.9565ZM187.697 29.9688V30.6424C187.697 30.7574 187.701 30.8929 187.709 31.0531C187.718 31.2707 187.726 31.394 187.734 31.4145C187.742 31.4391 187.763 31.4597 187.804 31.4843C187.845 31.509 187.907 31.5213 187.997 31.5213H188.162V31.6732C187.952 31.665 187.75 31.6568 187.553 31.6568C187.364 31.6568 187.096 31.6609 186.743 31.6732V31.5213H186.895C187.063 31.5213 187.162 31.4925 187.195 31.435C187.224 31.3775 187.24 31.1188 187.24 30.6506V29.1966C187.24 28.7736 187.224 28.5354 187.195 28.4779C187.162 28.4204 187.072 28.3916 186.928 28.3916H186.747V28.2397C187.014 28.2479 187.261 28.2561 187.487 28.2561C187.718 28.2561 187.944 28.252 188.162 28.2397V28.3916H188.059C187.911 28.3916 187.816 28.404 187.783 28.4286C187.746 28.4532 187.726 28.4902 187.718 28.5477C187.705 28.6381 187.697 28.8516 187.697 29.1925V29.7429C187.985 29.7511 188.351 29.7593 188.791 29.7593C189.166 29.7593 189.474 29.7552 189.709 29.7429V29.2706C189.709 28.9954 189.7 28.7654 189.68 28.5765C189.672 28.5107 189.651 28.4615 189.614 28.4327C189.577 28.404 189.503 28.3875 189.388 28.3875H189.215V28.2356C189.462 28.2438 189.696 28.252 189.918 28.252C190.157 28.252 190.404 28.2479 190.663 28.2356V28.3875H190.478C190.355 28.3875 190.272 28.3998 190.239 28.4286C190.206 28.4573 190.186 28.5066 190.178 28.5806C190.169 28.6545 190.165 28.8845 190.165 29.2706V30.6054C190.165 31.0982 190.178 31.3734 190.206 31.4309C190.235 31.4884 190.322 31.5172 190.47 31.5172H190.659V31.6691C190.437 31.6609 190.206 31.6527 189.968 31.6527C189.696 31.6527 189.445 31.6568 189.211 31.6691V31.5172H189.38C189.503 31.5172 189.581 31.5049 189.618 31.4761C189.655 31.4474 189.676 31.394 189.684 31.3159C189.7 31.1516 189.709 30.9093 189.709 30.5931V29.9647C189.482 29.9565 189.19 29.9482 188.837 29.9482C188.335 29.9565 187.952 29.9606 187.697 29.9688ZM183.258 29.9688V30.6424C183.258 30.7574 183.262 30.8929 183.27 31.0531C183.279 31.2707 183.287 31.394 183.295 31.4145C183.303 31.4391 183.324 31.4597 183.365 31.4843C183.406 31.509 183.468 31.5213 183.558 31.5213H183.723V31.6732C183.513 31.665 183.312 31.6568 183.114 31.6568C182.925 31.6568 182.657 31.6609 182.304 31.6732V31.5213H182.456C182.624 31.5213 182.723 31.4925 182.756 31.435C182.785 31.3775 182.801 31.1188 182.801 30.6506V29.1966C182.801 28.7736 182.785 28.5354 182.756 28.4779C182.723 28.4204 182.633 28.3916 182.489 28.3916H182.308V28.2397C182.575 28.2479 182.822 28.2561 183.048 28.2561C183.279 28.2561 183.505 28.252 183.723 28.2397V28.3916H183.62C183.472 28.3916 183.377 28.404 183.344 28.4286C183.307 28.4532 183.287 28.4902 183.279 28.5477C183.266 28.6381 183.258 28.8516 183.258 29.1925V29.7429C183.546 29.7511 183.912 29.7593 184.352 29.7593C184.727 29.7593 185.035 29.7552 185.27 29.7429V29.2706C185.27 28.9954 185.262 28.7654 185.241 28.5765C185.233 28.5107 185.212 28.4615 185.175 28.4327C185.138 28.404 185.06 28.3875 184.949 28.3875H184.776V28.2356C185.023 28.2438 185.257 28.252 185.48 28.252C185.718 28.252 185.965 28.2479 186.224 28.2356V28.3875H186.039C185.916 28.3875 185.833 28.3998 185.8 28.4286C185.768 28.4573 185.747 28.5066 185.739 28.5806C185.731 28.6545 185.726 28.8845 185.726 29.2706V30.6054C185.726 31.0982 185.739 31.3734 185.768 31.4309C185.796 31.4884 185.883 31.5172 186.031 31.5172H186.22V31.6691C185.998 31.6609 185.768 31.6527 185.529 31.6527C185.257 31.6527 185.006 31.6568 184.772 31.6691V31.5172H184.941C185.064 31.5172 185.142 31.5049 185.179 31.4761C185.216 31.4474 185.237 31.394 185.245 31.3159C185.262 31.1516 185.27 30.9093 185.27 30.5931V29.9647C185.043 29.9565 184.751 29.9482 184.398 29.9482C183.9 29.9565 183.517 29.9606 183.258 29.9688ZM179.959 30.0345V30.63L179.963 30.9709C179.963 31.1845 179.967 31.3406 179.971 31.4391C180.206 31.4556 180.461 31.4638 180.728 31.4638C180.909 31.4638 181.061 31.4556 181.185 31.4391C181.263 31.4309 181.349 31.4104 181.436 31.3775C181.477 31.2379 181.518 31.0572 181.559 30.8477H181.719C181.678 31.2009 181.654 31.435 181.654 31.5541L181.658 31.665C181.473 31.6774 181.287 31.6856 181.111 31.6856L180.732 31.6815C180.312 31.6732 180.004 31.6691 179.806 31.6691C179.617 31.6691 179.366 31.6732 179.054 31.6856V31.5336H179.128C179.268 31.5336 179.358 31.5213 179.391 31.4925C179.428 31.4638 179.453 31.4022 179.465 31.2995C179.477 31.2009 179.481 30.975 179.481 30.63V29.3075C179.481 29.0898 179.477 28.9132 179.465 28.7736C179.453 28.634 179.444 28.5518 179.432 28.5272C179.42 28.5025 179.403 28.482 179.379 28.4656C179.358 28.4532 179.288 28.4368 179.169 28.4286L178.984 28.4081V28.2561H179.247L179.502 28.2643C179.646 28.2684 179.753 28.2725 179.827 28.2725L180.757 28.2602L181.197 28.2561C181.349 28.2561 181.497 28.2602 181.654 28.2725C181.592 28.4656 181.555 28.712 181.551 29.02H181.39C181.39 28.8434 181.382 28.6956 181.366 28.5765C181.172 28.5066 180.938 28.4697 180.662 28.4697C180.44 28.4697 180.21 28.4779 179.967 28.4984C179.967 28.6504 179.967 28.8023 179.963 28.9543L179.959 29.3281V29.8168C180.119 29.825 180.263 29.8332 180.387 29.8332C180.773 29.8332 180.995 29.8209 181.045 29.7922C181.094 29.7634 181.123 29.6813 181.123 29.5416V29.3815H181.283C181.271 29.6238 181.267 29.8209 181.267 29.9647C181.267 30.1166 181.271 30.2973 181.283 30.5068H181.123V30.3672C181.123 30.2111 181.094 30.1207 181.032 30.0838C180.971 30.0509 180.757 30.0304 180.387 30.0304C180.247 30.0181 180.107 30.0222 179.959 30.0345ZM176.631 28.5107C176.618 28.7407 176.614 28.9872 176.614 29.25V30.6259C176.614 31.1106 176.631 31.3775 176.659 31.435C176.688 31.4925 176.783 31.5213 176.943 31.5213H177.112V31.6732C176.828 31.665 176.602 31.6568 176.437 31.6568C176.293 31.6568 176.034 31.6609 175.664 31.6732V31.5213H175.882C175.985 31.5213 176.05 31.509 176.079 31.4843C176.108 31.4597 176.129 31.4104 176.137 31.3324C176.145 31.2584 176.153 31.0243 176.162 30.6341V29.3486L176.153 28.8516C176.149 28.6422 176.129 28.5149 176.087 28.4697C176.046 28.4245 175.948 28.3998 175.787 28.3998H175.668V28.2479C175.869 28.2561 176.125 28.2561 176.433 28.2561C176.614 28.2561 176.82 28.252 177.042 28.2397C177.19 28.2315 177.301 28.2315 177.375 28.2315C177.766 28.2315 178.05 28.3013 178.227 28.445C178.404 28.5888 178.49 28.7818 178.49 29.02C178.49 29.1966 178.441 29.365 178.338 29.5293C178.235 29.6895 178.091 29.8209 177.906 29.9195C177.721 30.0181 177.519 30.0674 177.309 30.0674C177.215 30.0674 177.091 30.0509 176.947 30.0222L176.898 29.8415C177.042 29.8784 177.157 29.8949 177.252 29.8949C177.474 29.8949 177.651 29.8291 177.782 29.6936C177.914 29.5581 177.98 29.3774 177.98 29.1432C177.98 28.9174 177.91 28.7407 177.77 28.6175C177.63 28.4902 177.42 28.4286 177.145 28.4286C176.988 28.4204 176.816 28.4532 176.631 28.5107ZM173.315 30.0345V30.63L173.319 30.9709C173.319 31.1845 173.323 31.3406 173.327 31.4391C173.562 31.4556 173.817 31.4638 174.084 31.4638C174.265 31.4638 174.417 31.4556 174.541 31.4391C174.619 31.4309 174.705 31.4104 174.792 31.3775C174.833 31.2379 174.874 31.0572 174.915 30.8477H175.075C175.034 31.2009 175.01 31.435 175.01 31.5541L175.014 31.665C174.829 31.6774 174.643 31.6856 174.467 31.6856L174.088 31.6815C173.668 31.6732 173.36 31.6691 173.162 31.6691C172.973 31.6691 172.722 31.6732 172.41 31.6856V31.5336H172.484C172.624 31.5336 172.714 31.5213 172.747 31.4925C172.784 31.4638 172.809 31.4022 172.821 31.2995C172.833 31.2009 172.837 30.975 172.837 30.63V29.3075C172.837 29.0898 172.833 28.9132 172.821 28.7736C172.809 28.634 172.8 28.5518 172.788 28.5272C172.776 28.5025 172.759 28.482 172.735 28.4656C172.714 28.4532 172.644 28.4368 172.525 28.4286L172.34 28.4081V28.2561H172.603L172.858 28.2643C173.002 28.2684 173.109 28.2725 173.183 28.2725L174.113 28.2602L174.553 28.2561C174.705 28.2561 174.853 28.2602 175.01 28.2725C174.948 28.4656 174.911 28.712 174.907 29.02H174.746C174.746 28.8434 174.738 28.6956 174.722 28.5765C174.528 28.5066 174.294 28.4697 174.018 28.4697C173.796 28.4697 173.566 28.4779 173.323 28.4984C173.323 28.6504 173.323 28.8023 173.319 28.9543L173.315 29.3281V29.8168C173.475 29.825 173.619 29.8332 173.743 29.8332C174.129 29.8332 174.351 29.8209 174.401 29.7922C174.45 29.7634 174.479 29.6813 174.479 29.5416V29.3815H174.639C174.627 29.6238 174.623 29.8209 174.623 29.9647C174.623 30.1166 174.627 30.2973 174.639 30.5068H174.479V30.3672C174.479 30.2111 174.45 30.1207 174.388 30.0838C174.327 30.0509 174.113 30.0304 173.743 30.0304C173.603 30.0181 173.463 30.0222 173.315 30.0345ZM169.937 31.435C170.089 31.4556 170.213 31.4679 170.312 31.4679C170.595 31.4679 170.818 31.394 170.974 31.242C171.13 31.09 171.208 30.8847 171.208 30.6218C171.208 30.4493 171.175 30.3056 171.106 30.1906C171.036 30.0756 170.937 29.9934 170.813 29.9441C170.69 29.8907 170.488 29.8661 170.213 29.8661C170.131 29.8661 170.036 29.8661 169.933 29.8702V30.7286L169.937 31.0325C169.941 31.1434 169.945 31.2256 169.945 31.2831C169.945 31.3241 169.941 31.3775 169.937 31.435ZM169.937 29.669C170.019 29.6731 170.094 29.6731 170.159 29.6731C170.48 29.6731 170.711 29.6156 170.85 29.5006C170.99 29.3897 171.06 29.2254 171.06 29.0077C171.06 28.8229 171.003 28.6791 170.887 28.5806C170.772 28.482 170.587 28.4327 170.332 28.4327C170.221 28.4327 170.098 28.445 169.966 28.4656C169.954 28.6627 169.945 28.9584 169.945 29.3568V29.669H169.937ZM170.739 29.7347C171.085 29.7552 171.336 29.8373 171.488 29.9729C171.64 30.1084 171.718 30.3015 171.718 30.5438C171.718 30.8518 171.591 31.1147 171.332 31.3406C171.073 31.5623 170.748 31.6732 170.349 31.6732L170.159 31.6691C169.999 31.6609 169.863 31.6609 169.748 31.6609C169.666 31.6609 169.567 31.665 169.452 31.6691L169.25 31.6774V31.5706C169.349 31.5213 169.411 31.4843 169.427 31.4597C169.443 31.435 169.456 31.3899 169.46 31.3324C169.472 31.1393 169.476 30.9216 169.476 30.6793V29.1761C169.476 28.7736 169.46 28.5477 169.431 28.4943C169.398 28.4327 169.308 28.3998 169.172 28.3998H169.007V28.252H169.209L169.431 28.2602C169.546 28.2643 169.637 28.2684 169.703 28.2684C169.806 28.2684 170.003 28.2643 170.303 28.2561L170.657 28.2479C170.933 28.2479 171.143 28.2972 171.278 28.3916C171.451 28.5149 171.537 28.6873 171.537 28.9091C171.537 29.094 171.476 29.2541 171.356 29.3938C171.241 29.5252 171.031 29.6402 170.739 29.7347ZM166.7 31.6486C166.621 31.4145 166.547 31.2132 166.477 31.0448L165.416 28.4902C165.395 28.4286 165.313 28.3998 165.177 28.3998H165.079V28.2479C165.301 28.2561 165.527 28.2643 165.749 28.2643C165.943 28.2643 166.156 28.2602 166.399 28.2479V28.3998H166.161C166.078 28.3998 166.025 28.4081 166 28.4245C165.975 28.4409 165.963 28.4656 165.963 28.5025C165.963 28.5723 166.074 28.8722 166.288 29.3979L166.95 31.0079L167.539 29.4923C167.757 28.9379 167.864 28.6216 167.864 28.5477C167.864 28.5066 167.856 28.4779 167.835 28.4656C167.818 28.4532 167.749 28.4409 167.629 28.4286L167.419 28.4081V28.2561C167.621 28.2643 167.806 28.2725 167.975 28.2725C168.106 28.2725 168.283 28.2684 168.497 28.2561V28.4081H168.403C168.32 28.4081 168.263 28.4286 168.222 28.4738C168.181 28.5148 168.123 28.6422 168.045 28.8475L167.251 30.8354L166.806 32.0388C166.728 32.2606 166.609 32.4125 166.453 32.5029C166.292 32.5932 166.128 32.6384 165.951 32.6384C165.93 32.6384 165.901 32.6384 165.86 32.6343V32.2565L165.91 32.2277C165.988 32.2852 166.074 32.3099 166.169 32.3099C166.268 32.3099 166.358 32.2811 166.432 32.2277C166.514 32.1579 166.601 31.969 166.7 31.6486Z" fill="#473A32"/>
<path d="M189.606 41.0539L188.886 42.5448C188.614 43.1034 188.396 43.5921 188.219 44.0111H188.117C188.059 43.8673 187.886 43.5018 187.606 42.9145L186.747 41.1361V42.9884C186.747 43.4196 186.763 43.6661 186.8 43.7236C186.833 43.7811 186.944 43.8098 187.125 43.8098H187.216V43.9618C186.989 43.9536 186.808 43.9454 186.669 43.9454C186.566 43.9454 186.364 43.9495 186.06 43.9618V43.8098H186.216C186.323 43.8098 186.393 43.7934 186.43 43.7646C186.467 43.7359 186.487 43.6784 186.496 43.6004C186.516 43.3745 186.525 43.1321 186.525 42.8734V41.5098C186.525 41.1813 186.516 40.9636 186.504 40.8568C186.496 40.8034 186.475 40.7623 186.434 40.7336C186.393 40.7048 186.311 40.6884 186.187 40.6884H186.06V40.5364C186.339 40.5446 186.516 40.5529 186.586 40.5529C186.677 40.5529 186.808 40.5488 186.977 40.5364C187.17 40.9718 187.397 41.4482 187.652 41.9739L188.285 43.2841L188.874 42.0725C189.079 41.6495 189.318 41.1361 189.585 40.5405C189.787 40.5488 189.927 40.557 190.009 40.557C190.104 40.557 190.276 40.5529 190.523 40.5405V40.6925H190.367C190.223 40.6925 190.137 40.7171 190.108 40.7664C190.075 40.8157 190.063 40.9923 190.063 41.2963V43.0582C190.063 43.4525 190.079 43.6743 190.112 43.7318C190.145 43.7893 190.239 43.818 190.392 43.818H190.531V43.97C190.305 43.9618 190.091 43.9536 189.89 43.9536C189.663 43.9536 189.429 43.9577 189.182 43.97V43.818H189.343C189.47 43.818 189.548 43.7893 189.573 43.7359C189.598 43.6825 189.614 43.4443 189.614 43.0213V41.0539H189.606ZM182.341 42.052C182.341 42.4175 182.402 42.7338 182.53 43.0007C182.653 43.2718 182.822 43.473 183.032 43.6045C183.242 43.74 183.48 43.8057 183.752 43.8057C184.003 43.8057 184.221 43.7482 184.406 43.6332C184.591 43.5182 184.739 43.3498 184.846 43.1198C184.953 42.8939 185.006 42.6188 185.006 42.2943C185.006 41.9534 184.949 41.6618 184.83 41.4195C184.71 41.1771 184.55 40.9964 184.34 40.8732C184.134 40.75 183.892 40.6884 183.608 40.6884C183.349 40.6884 183.126 40.7418 182.941 40.8486C182.756 40.9554 182.608 41.1155 182.501 41.325C182.394 41.5386 182.341 41.7768 182.341 42.052ZM181.851 42.2491C181.851 41.7193 182.024 41.2921 182.365 40.9718C182.707 40.6473 183.163 40.4871 183.731 40.4871C184.287 40.4871 184.727 40.6391 185.044 40.9389C185.36 41.2388 185.517 41.6371 185.517 42.1341C185.517 42.668 185.331 43.1198 184.965 43.4771C184.599 43.8386 184.134 44.0193 183.575 44.0193C183.225 44.0193 182.925 43.9495 182.67 43.8057C182.415 43.6661 182.217 43.4566 182.069 43.1855C181.925 42.9104 181.851 42.6023 181.851 42.2491ZM180.16 40.7541C180.144 40.9964 180.136 41.2511 180.136 41.518V42.8939C180.136 43.4073 180.148 43.6866 180.173 43.74C180.197 43.7934 180.288 43.818 180.448 43.818H180.629V43.97C180.345 43.9618 180.103 43.9536 179.905 43.9536C179.704 43.9536 179.465 43.9577 179.185 43.97V43.818H179.387C179.494 43.818 179.564 43.8057 179.597 43.777C179.63 43.7482 179.65 43.6948 179.658 43.6127C179.675 43.4238 179.683 43.1814 179.683 42.8857V41.5098C179.683 41.2388 179.679 40.9882 179.667 40.7623H179.42C179.025 40.7623 178.807 40.7705 178.766 40.7911C178.725 40.8075 178.7 40.8814 178.687 41.0088L178.655 41.3332H178.502L178.506 41.0457C178.506 40.9307 178.498 40.7623 178.478 40.5446C179.35 40.5529 179.86 40.5611 180.012 40.5611L181.349 40.5446C181.316 40.8157 181.3 41.0786 181.296 41.3291H181.144L181.119 41.0129C181.111 40.902 181.094 40.8363 181.078 40.8198C181.061 40.7993 181.02 40.787 180.958 40.7829C180.781 40.7705 180.58 40.7623 180.358 40.7623H180.16V40.7541ZM176.552 43.8139H176.705C176.853 43.8139 176.943 43.777 176.972 43.7071C177.001 43.6373 177.017 43.2882 177.017 42.668V41.8507C177.017 41.21 177.005 40.8527 176.98 40.787C176.956 40.7213 176.877 40.6884 176.75 40.6884H176.552V40.5364C176.82 40.5446 177.083 40.5529 177.346 40.5529C177.564 40.5529 177.762 40.5488 177.939 40.5364V40.6884H177.754C177.638 40.6884 177.569 40.7007 177.536 40.7295C177.507 40.7582 177.49 40.8239 177.486 40.9348C177.478 41.1073 177.474 41.4113 177.474 41.8548V42.6845C177.474 43.3088 177.486 43.6538 177.515 43.7154C177.544 43.777 177.63 43.8098 177.778 43.8098H177.939V43.9618C177.741 43.9536 177.523 43.9454 177.289 43.9454C177.017 43.9454 176.77 43.9495 176.552 43.9618V43.8139ZM174.644 43.7277C174.771 43.7482 174.894 43.7605 175.01 43.7605C175.294 43.7605 175.516 43.6825 175.672 43.5305C175.828 43.3786 175.906 43.1732 175.906 42.9145C175.906 42.7871 175.882 42.6639 175.837 42.5489C175.791 42.4339 175.701 42.3354 175.577 42.2655C175.45 42.1916 175.236 42.1546 174.931 42.1546C174.833 42.1546 174.734 42.1588 174.635 42.1629V43.0213C174.635 43.3868 174.639 43.625 174.644 43.7277ZM173.952 43.8591L174.026 43.8263C174.096 43.7893 174.142 43.7441 174.158 43.6825C174.175 43.6209 174.183 43.3827 174.183 42.9679V41.4893C174.183 41.0745 174.166 40.8404 174.137 40.7788C174.109 40.7171 174.018 40.6884 173.866 40.6884H173.718V40.5364C173.911 40.5446 174.129 40.5529 174.376 40.5529C174.664 40.5529 174.907 40.5488 175.104 40.5364V40.6884H175.001C174.82 40.6884 174.713 40.713 174.685 40.7623C174.656 40.8116 174.639 41.0539 174.639 41.4893V41.9657H175.133C175.993 41.9657 176.421 42.2573 176.421 42.8446C176.421 43.165 176.285 43.432 176.018 43.6455C175.75 43.8591 175.429 43.9659 175.051 43.9659C175.01 43.9659 174.944 43.9659 174.862 43.9618C174.701 43.9536 174.574 43.9536 174.479 43.9536C174.384 43.9536 174.273 43.9577 174.154 43.9618C174.059 43.9659 173.994 43.97 173.952 43.97V43.8591ZM171.706 43.8139H171.875C172.031 43.8139 172.122 43.7811 172.155 43.7154C172.187 43.6496 172.204 43.3745 172.204 42.8898V41.5632C172.204 41.4811 172.192 41.2141 172.171 40.7664C172.027 40.7541 171.768 40.7459 171.394 40.7459C170.85 40.7459 170.488 40.7541 170.307 40.7664C170.295 41.0046 170.287 41.2429 170.287 41.4852V42.9391C170.287 43.0541 170.291 43.1896 170.299 43.3457L170.312 43.6127C170.312 43.703 170.344 43.7605 170.398 43.7811C170.456 43.8016 170.517 43.8139 170.587 43.8139H170.752V43.9659C170.558 43.9577 170.357 43.9495 170.143 43.9495C169.941 43.9495 169.67 43.9536 169.337 43.9659V43.8139H169.489C169.666 43.8139 169.769 43.7811 169.793 43.7154C169.818 43.6496 169.834 43.3909 169.834 42.9391V41.4893C169.834 41.0868 169.822 40.8527 169.793 40.787C169.764 40.7213 169.674 40.6884 169.518 40.6884H169.337V40.5364C170.365 40.5446 171.04 40.5529 171.361 40.5529C171.566 40.5529 172.163 40.5488 173.15 40.5364V40.6884H172.965C172.788 40.6884 172.694 40.7254 172.677 40.7952C172.665 40.865 172.656 41.1238 172.656 41.5673V42.9021C172.656 43.3745 172.669 43.6455 172.689 43.7113C172.71 43.777 172.805 43.8139 172.965 43.8139H173.15V43.9659C172.953 43.9577 172.718 43.9495 172.451 43.9495C172.171 43.9495 171.924 43.9536 171.702 43.9659V43.8139H171.706ZM165.626 42.052C165.626 42.4175 165.688 42.7338 165.815 43.0007C165.938 43.2718 166.107 43.473 166.317 43.6045C166.527 43.74 166.765 43.8057 167.037 43.8057C167.288 43.8057 167.506 43.7482 167.691 43.6332C167.876 43.5182 168.024 43.3498 168.131 43.1198C168.238 42.8939 168.292 42.6188 168.292 42.2943C168.292 41.9534 168.234 41.6618 168.115 41.4195C167.995 41.1771 167.835 40.9964 167.625 40.8732C167.419 40.75 167.177 40.6884 166.893 40.6884C166.634 40.6884 166.412 40.7418 166.226 40.8486C166.041 40.9554 165.893 41.1155 165.786 41.325C165.679 41.5386 165.626 41.7768 165.626 42.052ZM165.136 42.2491C165.136 41.7193 165.309 41.2921 165.65 40.9718C165.992 40.6473 166.449 40.4871 167.016 40.4871C167.572 40.4871 168.012 40.6391 168.329 40.9389C168.645 41.2388 168.802 41.6371 168.802 42.1341C168.802 42.668 168.617 43.1198 168.25 43.4771C167.884 43.8386 167.419 44.0193 166.86 44.0193C166.51 44.0193 166.21 43.9495 165.955 43.8057C165.7 43.6661 165.502 43.4566 165.354 43.1855C165.206 42.9104 165.136 42.6023 165.136 42.2491ZM207.024 36.0802C206.864 36.3061 206.67 36.5689 206.436 36.8688L205.971 37.4684C205.889 37.5711 205.835 37.6286 205.806 37.645C205.778 37.6573 205.749 37.6655 205.72 37.6655H205.658V37.8175C205.794 37.8093 205.909 37.8011 206.008 37.8011C206.099 37.8011 206.197 37.8052 206.296 37.8175L207.152 36.6634C207.312 36.4498 207.481 36.2445 207.666 36.0391L207.641 35.957C207.547 35.9652 207.477 35.9693 207.431 35.9693C207.164 35.9693 206.95 35.8995 206.798 35.7598C206.646 35.6202 206.568 35.4354 206.568 35.2054C206.568 35 206.633 34.8357 206.761 34.7207C206.888 34.6057 207.078 34.5441 207.32 34.5441C207.489 34.5441 207.662 34.577 207.831 34.6386C207.851 34.8932 207.859 35.1684 207.859 35.46V36.6264C207.859 37.1932 207.847 37.5095 207.818 37.5711C207.789 37.6327 207.703 37.6655 207.551 37.6655H207.362V37.8175C207.629 37.8093 207.851 37.8011 208.028 37.8011C208.168 37.8011 208.419 37.8052 208.781 37.8175V37.6655H208.6C208.46 37.6655 208.378 37.6368 208.353 37.5752C208.328 37.5136 208.316 37.1973 208.316 36.6264V35.4682C208.316 34.9713 208.332 34.692 208.361 34.6304C208.39 34.5729 208.489 34.54 208.653 34.54H208.785V34.388C208.485 34.3963 208.254 34.4045 208.098 34.4045C207.991 34.4045 207.839 34.4004 207.637 34.3921C207.407 34.3839 207.238 34.3798 207.135 34.3798C206.856 34.3798 206.646 34.4086 206.502 34.4661C206.358 34.5236 206.247 34.6098 206.173 34.7207C206.099 34.8316 206.062 34.963 206.062 35.1191C206.062 35.345 206.144 35.5463 206.308 35.7188C206.477 35.8954 206.712 36.0145 207.024 36.0802ZM202.688 36.4621H203.906L203.297 35.0164L202.688 36.4621ZM203.996 36.6593H202.598L202.433 37.0495C202.326 37.3082 202.269 37.4643 202.269 37.5218C202.269 37.5588 202.277 37.5834 202.297 37.5998C202.318 37.6163 202.367 37.6286 202.45 37.6368L202.68 37.6614V37.8134C202.524 37.8052 202.351 37.797 202.157 37.797C201.927 37.797 201.721 37.8011 201.544 37.8134V37.6614L201.618 37.6573C201.73 37.6532 201.804 37.6409 201.837 37.6245C201.869 37.6039 201.902 37.5546 201.939 37.4766C202.055 37.2425 202.17 36.9961 202.289 36.725L202.956 35.2218C203.132 34.8234 203.256 34.5318 203.318 34.3511H203.482L204.708 37.1932C204.79 37.3863 204.844 37.5013 204.873 37.5423C204.901 37.5834 204.93 37.608 204.967 37.6286C205.004 37.645 205.082 37.6573 205.206 37.6614V37.8134C204.996 37.8052 204.794 37.797 204.605 37.797C204.428 37.797 204.19 37.8011 203.898 37.8134V37.6614L204.136 37.645C204.223 37.6409 204.272 37.6286 204.288 37.6204C204.313 37.6039 204.325 37.5793 204.325 37.5546C204.325 37.5259 204.301 37.452 204.251 37.3288L203.996 36.6593ZM198.089 36.1171V36.7907C198.089 36.9057 198.093 37.0413 198.101 37.2014C198.109 37.4191 198.118 37.5423 198.126 37.567C198.134 37.5916 198.155 37.6121 198.196 37.6368C198.237 37.6614 198.299 37.6738 198.389 37.6738H198.554V37.8257C198.344 37.8175 198.142 37.8093 197.945 37.8093C197.756 37.8093 197.488 37.8134 197.134 37.8257V37.6738H197.287C197.455 37.6738 197.554 37.645 197.587 37.5875C197.616 37.53 197.632 37.2713 197.632 36.803V35.3491C197.632 34.9261 197.616 34.6879 197.587 34.6304C197.554 34.5729 197.463 34.5441 197.319 34.5441H197.138V34.3921C197.406 34.4004 197.653 34.4086 197.879 34.4086C198.109 34.4086 198.336 34.4045 198.554 34.3921V34.5441H198.451C198.303 34.5441 198.208 34.5564 198.175 34.5811C198.138 34.6057 198.118 34.6427 198.109 34.7002C198.097 34.7905 198.089 35.0041 198.089 35.345V35.8954C198.377 35.9036 198.743 35.9118 199.183 35.9118C199.557 35.9118 199.866 35.9077 200.1 35.8954V35.423C200.1 35.1479 200.092 34.9179 200.072 34.7289C200.063 34.6632 200.043 34.6139 200.006 34.5852C199.969 34.5564 199.895 34.54 199.78 34.54H199.607V34.388C199.854 34.3963 200.088 34.4045 200.31 34.4045C200.549 34.4045 200.796 34.4004 201.055 34.388V34.54H200.87C200.746 34.54 200.664 34.5523 200.631 34.5811C200.598 34.6098 200.578 34.6591 200.569 34.733C200.561 34.807 200.557 35.037 200.557 35.423V36.7579C200.557 37.2507 200.569 37.5259 200.598 37.5834C200.627 37.6409 200.713 37.6696 200.862 37.6696H201.051V37.8216C200.829 37.8134 200.598 37.8052 200.36 37.8052C200.088 37.8052 199.837 37.8093 199.603 37.8216V37.6696H199.771C199.895 37.6696 199.973 37.6573 200.01 37.6286C200.047 37.5998 200.068 37.5464 200.076 37.4684C200.092 37.3041 200.1 37.0618 200.1 36.7455V36.1171C199.874 36.1089 199.582 36.1007 199.228 36.1007C198.726 36.1007 198.344 36.1048 198.089 36.1171Z" fill="#473A32"/>
<path d="M156.793 22.7032H156.217V49.5106H156.793V22.7032Z" fill="#473A32"/>
</g>
<defs>
<clipPath id="clip0_1_38">
<rect width="245" height="72" rx="4" fill="white"/>
</clipPath>
</defs>
</svg>
