<svg width="244" height="16" viewBox="0 0 244 16" fill="none" xmlns="http://www.w3.org/2000/svg">
<line x1="8" y1="7.5" x2="233" y2="7.5" stroke="#9C9C9C"/>
<circle cx="7.99999" cy="7.99996" r="7.33333" fill="white"/>
<path fill-rule="evenodd" clip-rule="evenodd" d="M15.2 7.99993C15.2 11.9763 11.9764 15.1999 7.99999 15.1999C4.02354 15.1999 0.799988 11.9763 0.799988 7.99993C0.799988 4.02348 4.02354 0.799927 7.99999 0.799927C11.9764 0.799927 15.2 4.02348 15.2 7.99993ZM11.453 5.94049C11.7709 5.48883 11.6624 4.86503 11.2107 4.54719C10.759 4.22935 10.1352 4.33784 9.81741 4.7895L6.7994 9.07825L5.78584 8.04592C5.39891 7.65183 4.76577 7.64603 4.37168 8.03296C3.97759 8.41988 3.97179 9.05302 4.35872 9.44711L6.21303 11.3357C6.42096 11.5475 6.71221 11.656 7.00801 11.6318C7.30381 11.6077 7.5736 11.4534 7.7444 11.2106L11.453 5.94049Z" fill="#8BC073"/>
<ellipse cx="236" cy="7.99996" rx="7.33333" ry="7.33333" fill="white"/>
<path fill-rule="evenodd" clip-rule="evenodd" d="M243.2 8.00005C243.2 11.9765 239.976 15.2 236 15.2C232.024 15.2 228.8 11.9765 228.8 8.00005C228.8 4.0236 232.024 0.800049 236 0.800049C239.976 0.800049 243.2 4.0236 243.2 8.00005ZM239.453 5.94061C239.771 5.48895 239.662 4.86515 239.211 4.54731C238.759 4.22947 238.135 4.33796 237.817 4.78962L234.799 9.07837L233.786 8.04604C233.399 7.65195 232.766 7.64615 232.372 8.03308C231.978 8.42 231.972 9.05314 232.359 9.44723L234.213 11.3359C234.421 11.5476 234.712 11.6561 235.008 11.6319C235.304 11.6078 235.574 11.4535 235.744 11.2108L239.453 5.94061Z" fill="#9C9C9C"/>
<circle cx="84" cy="8" r="8" fill="white"/>
<path fill-rule="evenodd" clip-rule="evenodd" d="M91.8545 8.00005C91.8545 12.338 88.3379 15.8546 84 15.8546C79.6621 15.8546 76.1454 12.338 76.1454 8.00005C76.1454 3.66211 79.6621 0.145508 84 0.145508C88.3379 0.145508 91.8545 3.66211 91.8545 8.00005ZM87.6924 5.70101C88.0102 5.24935 87.9017 4.62555 87.45 4.30771C86.9984 3.98988 86.3746 4.09837 86.0567 4.55003L82.7016 9.31788L81.5195 8.11386C81.1325 7.71977 80.4994 7.71396 80.1053 8.10089C79.7112 8.48782 79.7054 9.12096 80.0923 9.51505L82.1152 11.5754C82.3231 11.7871 82.6144 11.8956 82.9102 11.8715C83.206 11.8473 83.4758 11.693 83.6466 11.4503L87.6924 5.70101Z" fill="#8BC073"/>
<path d="M160 15.2C163.976 15.2 167.2 11.9765 167.2 8.00005C167.2 4.0236 163.976 0.800049 160 0.800049C156.024 0.800049 152.8 4.0236 152.8 8.00005C152.8 11.9765 156.024 15.2 160 15.2Z" fill="#FFD176"/>
<ellipse cx="160" cy="8.00004" rx="2.66667" ry="2.66667" fill="white"/>
</svg>
