<svg width="244" height="16" viewBox="0 0 244 16" fill="none" xmlns="http://www.w3.org/2000/svg">
<line x1="8" y1="7.5" x2="233" y2="7.5" stroke="#9C9C9C"/>
<circle cx="7.99996" cy="7.99996" r="7.33333" fill="white"/>
<path fill-rule="evenodd" clip-rule="evenodd" d="M15.1999 7.99993C15.1999 11.9763 11.9763 15.1999 7.99993 15.1999C4.02348 15.1999 0.799927 11.9763 0.799927 7.99993C0.799927 4.02348 4.02348 0.799927 7.99993 0.799927C11.9763 0.799927 15.1999 4.02348 15.1999 7.99993ZM11.453 5.94049C11.7708 5.48883 11.6623 4.86503 11.2106 4.54719C10.759 4.22935 10.1352 4.33784 9.81735 4.7895L6.79934 9.07825L5.78578 8.04592C5.39885 7.65183 4.76571 7.64603 4.37162 8.03296C3.97753 8.41988 3.97173 9.05302 4.35866 9.44711L6.21297 11.3357C6.4209 11.5475 6.71215 11.656 7.00795 11.6318C7.30375 11.6077 7.57354 11.4534 7.74434 11.2106L11.453 5.94049Z" fill="#8BC073"/>
<ellipse cx="236" cy="7.99996" rx="7.33333" ry="7.33333" fill="white"/>
<path fill-rule="evenodd" clip-rule="evenodd" d="M243.2 8.00005C243.2 11.9765 239.976 15.2 236 15.2C232.024 15.2 228.8 11.9765 228.8 8.00005C228.8 4.0236 232.024 0.800049 236 0.800049C239.976 0.800049 243.2 4.0236 243.2 8.00005ZM239.453 5.94061C239.771 5.48895 239.662 4.86515 239.211 4.54731C238.759 4.22947 238.135 4.33796 237.817 4.78962L234.799 9.07837L233.786 8.04604C233.399 7.65195 232.766 7.64615 232.372 8.03308C231.978 8.42 231.972 9.05314 232.359 9.44723L234.213 11.3359C234.421 11.5476 234.712 11.6561 235.008 11.6319C235.304 11.6078 235.574 11.4535 235.744 11.2108L239.453 5.94061Z" fill="#9C9C9C"/>
<path d="M84 15.2C87.9765 15.2 91.2 11.9765 91.2 8.00005C91.2 4.0236 87.9765 0.800049 84 0.800049C80.0236 0.800049 76.8 4.0236 76.8 8.00005C76.8 11.9765 80.0236 15.2 84 15.2Z" fill="#FFD176"/>
<ellipse cx="84" cy="8.00004" rx="2.66667" ry="2.66667" fill="white"/>
<ellipse cx="160" cy="7.99996" rx="7.33333" ry="7.33333" fill="white"/>
<path fill-rule="evenodd" clip-rule="evenodd" d="M167.2 8.00005C167.2 11.9765 163.976 15.2 160 15.2C156.024 15.2 152.8 11.9765 152.8 8.00005C152.8 4.0236 156.024 0.800049 160 0.800049C163.976 0.800049 167.2 4.0236 167.2 8.00005ZM163.453 5.94061C163.771 5.48895 163.662 4.86515 163.211 4.54731C162.759 4.22947 162.135 4.33796 161.817 4.78962L158.799 9.07837L157.786 8.04604C157.399 7.65195 156.766 7.64615 156.372 8.03308C155.978 8.42 155.972 9.05314 156.359 9.44723L158.213 11.3359C158.421 11.5476 158.712 11.6561 159.008 11.6319C159.304 11.6078 159.574 11.4535 159.744 11.2108L163.453 5.94061Z" fill="#9C9C9C"/>
</svg>
